<svg id="Layer_1" data-name="Layer 1" xmlns="http://www.w3.org/2000/svg" viewBox="0 0 708.64 210.78"><defs><style>.cls-1{fill:#479ad2;}.cls-2{fill:#293d7c;}.cls-3{opacity:0.6;}.cls-4{fill:#283c7c;}</style></defs><title>Logo</title><path class="cls-1" d="M552.28,563.17c-11.68,9.78-25.68,14.36-40.92,14.4-46.81.14-93.66.6-140.46,0a6.12,6.12,0,0,1-2.69-.46c-1.6-.83-1.39-2.84-1.26-4.34,1.3-15.36,7.87-27.81,20.52-36.79A47.27,47.27,0,0,1,415,527.27c20.73-.15,41.45,0,62.17-.15,2.32,0,3.38,1.14,4.49,2.79,7,10.33,16.84,15.5,29.23,14.8,9.95-.56,18.07-5.23,24-13.33a4.22,4.22,0,0,0,.88-2.09c0-1.41-1.75-1.68-2.81-1.69-6.34-.09-12.68-.14-19,0a4,4,0,0,1-4.1-2.21c-1.91-3.51-4.16-6.86-5.9-10.45a6,6,0,0,1-.12-4.6,93,93,0,0,1,6.27-11,4.93,4.93,0,0,1,3.48-2c3.77-.12,7.54-.14,11.31-.15a60.83,60.83,0,0,0,9.54-.32c3.07-.5,1-2.9-.18-4.31a35.14,35.14,0,0,0-4.8-5,32.39,32.39,0,0,0-33.65-4.76l-.68.31-.25.12c-.27.13-.54.26-.82.41a32,32,0,0,0-11.59,10.1,10.52,10.52,0,0,1-8.11,3.89c-15-.09-30.08.21-45.12-.07l-.95,0C396.47,496.93,370,474.76,365,443.3c-4-24.74,4.21-45.45,23.31-61.44,15.5-13,32.63-13.92,51.93-14.29,21.24-.4,42.46-.05,63.7-.09,20.65,0,41.29-.41,61.93-.38,5.26,0,5,3,4.52,7.27-2.3,19.91-13.1,33.46-31.64,40.38-5.69,2.13-12.18,2.78-18.32,2.89-18.7.35-37.42,0-56.12.16a5.69,5.69,0,0,1-5.45-2.84c-6.57-10.06-16.06-15.13-27.94-14.76-12.84.4-22.48,6.7-28.12,18.23-5.44,11.11-4.51,22.16,2.48,32.41l.12.18a4.08,4.08,0,0,0,.53,1A31.93,31.93,0,0,0,420.61,463c.3.12.59.22.9.32s.5.16.75.24.32.1.49.15a31.74,31.74,0,0,0,22.7-1.81c.33-.15.65-.31,1-.48A32,32,0,0,0,458,451.32a10.52,10.52,0,0,1,8.25-4c15,.09,30-.21,45,.07l1,0c31.88.65,58.32,22.82,63.36,54.27C579.55,526.46,571.38,547.18,552.28,563.17Z" transform="translate(-364.01 -367.1)"/><path class="cls-1" d="M440.06,417.61h-16a2.11,2.11,0,0,0-1.82,1.05l-8,13.83a2.08,2.08,0,0,0,0,2.1l8,13.83a2.11,2.11,0,0,0,1.82,1.05h16a2.1,2.1,0,0,0,1.82-1.05l8-13.83a2.13,2.13,0,0,0,0-2.1l-8-13.83A2.1,2.1,0,0,0,440.06,417.61Z" transform="translate(-364.01 -367.1)"/><path class="cls-2" d="M639.36,555.37a20.32,20.32,0,0,1-9.33,2.09c-16.74,0-23.89-15.08-23.89-29.91,0-16,8.19-30.34,25.72-30.34a16.89,16.89,0,0,1,7.76,1.48v16.57c-2.09-2.18-4.1-3.49-7.23-3.49-8.29,0-10.21,8.89-10.21,15.52,0,6.45,1.92,15,9.94,15,3.4,0,5.76-1.57,8.2-3.75Z" transform="translate(-364.01 -367.1)"/><path class="cls-2" d="M689.85,556.42l-1.22-26.51c-.17-3.49-.17-7.07-.34-10.55-.35,3.75-.88,7.49-1.58,11.16l-4.88,25.9H669l-4.53-28c-.52-3-.79-6-1.05-9.06-.09,4.27,0,8.63-.26,12.9l-1.4,24.16H644.94l6.81-58.17h19.53c1.74,10.38,3.75,20.5,4.53,31,1.14-10.46,3.49-20.67,5.41-31h19.36l5.67,58.17Z" transform="translate(-364.01 -367.1)"/><path class="cls-2" d="M739,556.42,728.49,528.6l.43,27.82H713.23V498.25h15.69l-.43,26,9.24-26H754.3l-12.38,28.08,14,30.09Z" transform="translate(-364.01 -367.1)"/><g class="cls-3"><path class="cls-4" d="M762.88,536.1V531h12v5.06Z" transform="translate(-364.01 -367.1)"/><path class="cls-4" d="M784.07,498.25h5.41v39.42A69.94,69.94,0,0,1,789,545c1.22-4.1,1.48-5.23,2.09-7.06l12.38-39.68h5.41v58.17h-5.41V518.83c0-3.05.35-6.89.52-9.15-1.48,5.66-1.74,6.27-2.35,8.19l-12.12,38.55h-5.41Z" transform="translate(-364.01 -367.1)"/><path class="cls-4" d="M833.08,556.42V538.19H822.79v18.23h-4.88v-39h4.88v16.22h10.29V517.44H838v39Z" transform="translate(-364.01 -367.1)"/><path class="cls-4" d="M873.2,556.42l-10-17.88v17.88h-5V538.54l-10,17.88H842.5l11.77-20.32L843.2,517.44h5.32l9.68,17v-17h5v17l9.68-17h5.32L867.09,536.1l11.77,20.32Z" transform="translate(-364.01 -367.1)"/><path class="cls-4" d="M899.1,556.42V532.17c0-.69,0-1.65.17-5.58a32.78,32.78,0,0,1-1.83,5.85l-9.16,24H883.4v-39h4.88V541.5c0,2,0,3.23-.17,6a46,46,0,0,1,1.83-5.75l9.16-24.33H904v39Z" transform="translate(-364.01 -367.1)"/><path class="cls-4" d="M927.88,556.42V538.19H917.59v18.23H912.7v-39h4.89v16.22h10.29V517.44h4.88v39Z" transform="translate(-364.01 -367.1)"/><path class="cls-4" d="M957.18,556.42V532.17c0-.69,0-1.65.17-5.58a32.78,32.78,0,0,1-1.83,5.85l-9.16,24h-4.88v-39h4.88V541.5c0,2,0,3.23-.17,6a46,46,0,0,1,1.83-5.75l9.16-24.33h4.88v39Z" transform="translate(-364.01 -367.1)"/><path class="cls-4" d="M975.67,520.05a7.06,7.06,0,0,1,6.19-3.22c9.59,0,9.68,12.29,9.68,19.36,0,8.37-.26,20.84-9.16,20.84-3,0-4.88-1.49-6.71-3.75v18.83h-4.89V517.44h4.89Zm5.05.7c-5.05,0-5.49,8.2-5.49,16,0,3.4,0,12.56,2.44,15a3.85,3.85,0,0,0,3.14,1.31c4.54,0,5.06-5.59,5.41-9,.26-3,.26-6.1.26-9.15C986.48,531,986.39,520.75,980.72,520.75Z" transform="translate(-364.01 -367.1)"/><path class="cls-4" d="M1014.47,556.42V532.17c0-.69,0-1.65.18-5.58a34.49,34.49,0,0,1-1.83,5.85l-9.16,24h-4.88v-39h4.88V541.5c0,2,0,3.23-.17,6a44.33,44.33,0,0,1,1.83-5.75l9.15-24.33h4.89v39Z" transform="translate(-364.01 -367.1)"/><path class="cls-4" d="M1043.25,556.42V538.19H1033v18.23h-4.88v-39H1033v16.22h10.29V517.44h4.88v39Z" transform="translate(-364.01 -367.1)"/><path class="cls-4" d="M1056.86,517.44h15.78V522h-10.9v34.45h-4.88Z" transform="translate(-364.01 -367.1)"/></g></svg>